# Blender 3.6.2
# www.blender.org
mtllib Moniitor.mtl
o Cube
v -0.053169 0.127454 -0.173315
v -0.053169 0.127454 -0.173315
v -0.053169 0.127454 -0.173315
v 0.002660 -0.119958 -0.173315
v 0.002660 -0.119958 -0.173315
v 0.002660 -0.119958 -0.173315
v -0.053169 0.127454 0.173315
v -0.053169 0.127454 0.173315
v -0.053169 0.127454 0.173315
v 0.002660 -0.119958 0.173315
v 0.002660 -0.119958 0.173315
v 0.002660 -0.119958 0.173315
v -0.074443 0.131043 -0.184500
v -0.074443 0.131043 -0.184500
v -0.074443 0.131043 -0.184500
v -0.074443 0.131043 -0.184500
v -0.015011 -0.132335 -0.184500
v -0.015011 -0.132335 -0.184500
v -0.015011 -0.132335 -0.184500
v -0.015011 -0.132335 -0.184500
v -0.015011 -0.132335 -0.184500
v -0.074443 0.131043 0.184500
v -0.074443 0.131043 0.184500
v -0.074443 0.131043 0.184500
v -0.074443 0.131043 0.184500
v -0.015011 -0.132335 0.184500
v -0.015011 -0.132335 0.184500
v -0.015011 -0.132335 0.184500
v -0.015011 -0.132335 0.184500
v -0.015011 -0.132335 0.184500
v -0.104918 0.084374 -0.131452
v -0.104918 0.084374 -0.131452
v -0.104918 0.084374 -0.131452
v -0.062574 -0.103276 -0.131452
v -0.062574 -0.103276 -0.131452
v -0.062574 -0.103276 -0.131452
v -0.062574 -0.103276 -0.131452
v -0.104918 0.084374 0.131452
v -0.104918 0.084374 0.131452
v -0.104918 0.084374 0.131452
v -0.062574 -0.103276 0.131452
v -0.062574 -0.103276 0.131452
v -0.062574 -0.103276 0.131452
v -0.062574 -0.103276 0.131452
v -0.033885 -0.092498 -0.147702
v -0.033885 -0.092498 -0.147702
v -0.033885 -0.092498 -0.147702
v -0.033885 -0.092498 0.147702
v -0.033885 -0.092498 0.147702
v -0.033885 -0.092498 0.147702
v -0.054970 0.135437 -0.184500
v -0.054970 0.135437 -0.184500
v -0.054970 0.135437 -0.184500
v 0.004461 -0.127941 -0.184500
v 0.004461 -0.127941 -0.184500
v 0.004461 -0.127941 -0.184500
v -0.054970 0.135437 0.184500
v -0.054970 0.135437 0.184500
v -0.054970 0.135437 0.184500
v 0.004461 -0.127941 0.184500
v 0.004461 -0.127941 0.184500
v 0.004461 -0.127941 0.184500
v -0.057119 0.126562 -0.173315
v -0.057119 0.126562 -0.173315
v -0.001290 -0.120849 -0.173315
v -0.001290 -0.120849 -0.173315
v -0.057119 0.126562 0.173315
v -0.057119 0.126562 0.173315
v -0.001290 -0.120849 0.173315
v -0.001290 -0.120849 0.173315
v -0.056043 -0.176528 0.035625
v -0.056043 -0.176528 0.035625
v -0.056043 -0.176528 0.035625
v -0.056043 -0.176528 0.035625
v -0.056043 -0.176528 -0.035625
v -0.056043 -0.176528 -0.035625
v -0.056043 -0.176528 -0.035625
v -0.056043 -0.176528 -0.035625
v -0.022972 -0.176528 0.035625
v -0.022972 -0.176528 0.035625
v -0.022972 -0.176528 0.035625
v -0.022972 -0.176528 0.035625
v -0.022972 -0.105278 0.035625
v -0.022972 -0.105278 0.035625
v -0.022972 -0.105278 0.035625
v -0.022972 -0.176528 -0.035625
v -0.022972 -0.176528 -0.035625
v -0.022972 -0.176528 -0.035625
v -0.022972 -0.176528 -0.035625
v -0.022972 -0.105278 -0.035625
v -0.022972 -0.105278 -0.035625
v -0.022972 -0.105278 -0.035625
v -0.050661 -0.105278 0.035625
v -0.050661 -0.105278 0.035625
v -0.050661 -0.105278 0.035625
v -0.056043 -0.141607 0.035625
v -0.056043 -0.141607 0.035625
v -0.056043 -0.141607 0.035625
v -0.054467 -0.115919 0.035625
v -0.054467 -0.115919 0.035625
v -0.054467 -0.115919 0.035625
v -0.056043 -0.141607 -0.035625
v -0.056043 -0.141607 -0.035625
v -0.056043 -0.141607 -0.035625
v -0.050661 -0.105278 -0.035625
v -0.050661 -0.105278 -0.035625
v -0.050661 -0.105278 -0.035625
v -0.054467 -0.115919 -0.035625
v -0.054467 -0.115919 -0.035625
v -0.054467 -0.115919 -0.035625
v 0.063952 -0.187242 -0.118643
v 0.063952 -0.187242 -0.118643
v 0.063952 -0.187242 -0.118643
v 0.063952 -0.187242 -0.118643
v 0.063952 -0.187242 0.118643
v 0.063952 -0.187242 0.118643
v 0.063952 -0.187242 0.118643
v 0.063952 -0.187242 0.118643
v -0.067834 -0.187242 -0.118643
v -0.067834 -0.187242 -0.118643
v -0.067834 -0.187242 -0.118643
v -0.067857 -0.179813 -0.061077
v -0.067857 -0.179813 -0.061077
v -0.067857 -0.179813 -0.061077
v -0.078918 -0.185066 -0.101782
v -0.078918 -0.185066 -0.101782
v -0.078918 -0.185066 -0.101782
v -0.078918 -0.185066 -0.101782
v -0.067857 -0.179813 0.061077
v -0.067857 -0.179813 0.061077
v -0.067857 -0.179813 0.061077
v -0.067834 -0.187242 0.118643
v -0.067834 -0.187242 0.118643
v -0.067834 -0.187242 0.118643
v -0.078918 -0.185066 0.101782
v -0.078918 -0.185066 0.101782
v -0.078918 -0.185066 0.101782
v -0.078918 -0.185066 0.101782
v 0.063952 -0.193728 -0.118643
v 0.063952 -0.193728 -0.118643
v 0.063952 -0.193728 -0.118643
v 0.063952 -0.193728 0.118643
v 0.063952 -0.193728 0.118643
v 0.063952 -0.193728 0.118643
v -0.067834 -0.193728 -0.118643
v -0.067834 -0.193728 -0.118643
v -0.067834 -0.193728 -0.118643
v -0.067834 -0.193728 -0.118643
v -0.078918 -0.191552 -0.101782
v -0.078918 -0.191552 -0.101782
v -0.078918 -0.191552 -0.101782
v -0.067834 -0.193728 0.118643
v -0.067834 -0.193728 0.118643
v -0.067834 -0.193728 0.118643
v -0.067834 -0.193728 0.118643
v -0.078918 -0.191552 0.101782
v -0.078918 -0.191552 0.101782
v -0.078918 -0.191552 0.101782
v -0.057119 0.126562 -0.173315
v -0.001290 -0.120849 -0.173315
v -0.057119 0.126562 0.173315
v -0.001290 -0.120849 0.173315
vn -0.2201 0.9755 -0.0000
vn -0.0000 -0.0000 1.0000
vn -0.7789 -0.1758 -0.6021
vn 0.2201 -0.9755 -0.0000
vn -0.0000 -0.0000 -1.0000
vn -0.9755 -0.2201 -0.0000
vn -0.7789 -0.1758 0.6021
vn -0.9037 -0.4282 -0.0000
vn -0.8373 0.5468 -0.0000
vn 0.5610 -0.4025 0.7234
vn 0.3517 -0.9361 -0.0000
vn 0.5610 -0.4025 -0.7234
vn 0.9755 0.2201 -0.0000
vn -0.0000 1.0000 -0.0000
vn 1.0000 -0.0000 -0.0000
vn -1.0000 -0.0000 -0.0000
vn 0.1223 0.9925 -0.0000
vn -0.9416 0.3368 -0.0000
vn -0.9981 0.0612 -0.0000
vn -0.0000 0.9918 -0.1280
vn -0.0000 0.9918 0.1280
vn -0.4290 0.9033 -0.0000
vn -0.2679 0.9634 -0.0000
vn -0.0000 -1.0000 -0.0000
vn -0.1927 -0.9813 -0.0000
vn -0.8356 -0.0000 0.5493
vn -0.8356 -0.0000 -0.5493
vt 0.625000 0.500000
vt 0.875000 0.500000
vt 0.875000 0.750000
vt 0.625000 0.750000
vt 0.375000 0.750000
vt 0.625000 1.000000
vt 0.375000 1.000000
vt 0.625000 0.250000
vt 0.375000 0.250000
vt 0.125000 0.500000
vt 0.375000 0.500000
vt 0.125000 0.750000
vt 0.617422 0.507578
vt 0.617422 0.742422
vt 0.375000 0.000000
vt 0.625000 0.000000
vt 0.382578 0.507578
vt 0.382578 0.742422
vt 0.834314 0.500000
vt 0.834314 0.750000
vt 0.497531 0.000000
vt 0.497531 0.250000
vt 0.497531 0.250000
vt 0.587665 0.261917
vt 0.625000 0.290686
vt 0.625000 0.959314
vt 0.587665 0.988083
vt 0.497531 1.000000
vt 0.375000 0.292172
vt 0.375000 0.262611
vt 0.375000 0.987389
vt 0.375000 0.957828
vt 0.375000 0.017764
vt 0.375000 0.232236
vt 0.167172 0.500000
vt 0.167172 0.750000
vt 0.125000 0.732236
vt 0.125000 0.517764
s 1
usemtl Material.001
f 51/1/1 16/2/1 25/3/1
f 51/1/1 25/3/1 57/4/1
s 0
f 60/5/2 58/4/2 23/6/2
f 60/5/2 23/6/2 30/7/2
f 13/8/3 20/9/3 35/9/3
f 13/8/3 35/9/3 32/8/3
s 1
f 18/10/4 55/11/4 61/5/4
f 18/10/4 61/5/4 27/12/4
f 2/13/4 8/14/4 68/14/4
f 2/13/4 68/14/4 64/13/4
s 0
f 21/9/5 14/8/5 52/1/5
f 21/9/5 52/1/5 54/11/5
s 1
f 42/15/6 39/16/6 31/8/6
f 42/15/6 31/8/6 34/9/6
s 0
f 29/7/7 22/6/7 38/6/7
f 29/7/7 38/6/7 41/7/7
s 1
f 17/10/8 26/12/8 48/12/8
f 17/10/8 48/12/8 45/10/8
f 24/3/9 15/2/9 33/2/9
f 24/3/9 33/2/9 40/3/9
f 19/10/10 47/10/10 37/9/10
s 0
f 43/15/11 36/9/11 46/10/11
f 43/15/11 46/10/11 49/12/11
s 1
f 28/12/12 44/15/12 50/12/12
f 3/13/13 6/17/13 56/11/13
f 3/13/13 56/11/13 53/1/13
f 12/18/13 9/14/13 59/4/13
f 12/18/13 59/4/13 62/5/13
f 9/14/13 3/13/13 53/1/13
f 9/14/13 53/1/13 59/4/13
f 6/17/13 12/18/13 62/5/13
f 6/17/13 62/5/13 56/11/13
s 0
f 5/17/2 1/13/2 63/13/2
f 5/17/2 63/13/2 66/17/2
s 1
f 10/18/1 4/17/1 65/17/1
f 10/18/1 65/17/1 69/18/1
s 0
f 7/14/5 11/18/5 70/18/5
f 7/14/5 70/18/5 67/14/5
f 91/1/14 107/19/14 95/20/14
f 91/1/14 95/20/14 84/4/14
f 89/11/15 92/1/15 85/4/15
f 89/11/15 85/4/15 82/5/15
f 73/15/16 97/21/16 102/22/16
f 73/15/16 102/22/16 75/9/16
s 1
f 88/11/17 81/5/17 117/5/17
f 88/11/17 117/5/17 113/11/17
s 0
f 86/11/5 77/9/5 104/23/5
f 104/23/5 108/24/5 105/25/5
f 105/25/5 90/1/5 86/11/5
f 104/23/5 105/25/5 86/11/5
f 94/20/18 106/19/18 110/2/18
f 94/20/18 110/2/18 101/3/18
f 100/16/19 109/8/19 103/22/19
f 100/16/19 103/22/19 98/21/19
f 71/7/2 79/5/2 83/4/2
f 83/4/2 93/26/2 99/27/2
f 99/27/2 96/28/2 71/7/2
f 83/4/2 99/27/2 71/7/2
f 124/9/20 78/9/20 87/11/20
f 87/11/20 112/11/20 121/29/20
f 121/29/20 126/30/20 124/9/20
f 87/11/20 121/29/20 124/9/20
f 116/5/21 80/5/21 72/7/21
f 72/7/21 129/7/21 136/31/21
f 136/31/21 134/32/21 116/5/21
f 72/7/21 136/31/21 116/5/21
f 115/5/2 133/32/2 155/32/2
f 115/5/2 155/32/2 143/5/2
f 137/33/16 127/34/16 151/34/16
f 137/33/16 151/34/16 158/33/16
s 1
f 128/34/22 138/33/22 130/15/22
f 128/34/22 130/15/22 122/9/22
s 0
f 74/15/23 76/9/23 123/9/23
f 74/15/23 123/9/23 131/15/23
f 146/35/24 139/11/24 142/5/24
f 146/35/24 142/5/24 153/36/24
f 145/35/25 152/36/25 156/37/25
f 145/35/25 156/37/25 149/38/25
f 114/11/15 118/5/15 144/5/15
f 114/11/15 144/5/15 141/11/15
f 132/32/26 135/31/26 157/31/26
f 132/32/26 157/31/26 154/32/26
f 125/30/27 119/29/27 147/29/27
f 125/30/27 147/29/27 150/30/27
f 120/29/5 111/11/5 140/11/5
f 120/29/5 140/11/5 148/29/5
s 1
usemtl Material.002
f 160/17/13 159/13/13 161/14/13
f 160/17/13 161/14/13 162/18/13
