{
  "accessors": [
    {
      "bufferView": 2,
      "componentType": 5126,
      "count": 19296,
      "max": [
        1.7506763935089111,
        5.753562927246094,
        3.2423129081726074
      ],
      "min": [
        -1.8469102382659912,
        -0.0037317276000976563,
        -2.6086273193359375
      ],
      "type": "VEC3"
    },
    {
      "bufferView": 2,
      "byteOffset": 231552,
      "componentType": 5126,
      "count": 19296,
      "max": [
        0.9998689293861389,
        0.9998593330383301,
        0.9999808073043823
      ],
      "min": [
        -0.9999781250953674,
        -0.9999974370002747,
        -0.9997773170471191
      ],
      "type": "VEC3"
    },
    {
      "bufferView": 3,
      "componentType": 5126,
      "count": 19296,
      "max": [
        0.9999911189079285,
        0.9998898506164551,
        0.9999841451644897,
        1.0
      ],
      "min": [
        -0.9999871253967285,
        -0.9998325109481812,
        -0.9997325539588928,
        -1.0
      ],
      "type": "VEC4"
    },
    {
      "bufferView": 1,
      "componentType": 5126,
      "count": 19296,
      "max": [
        0.9917015433311462,
        0.9912643432617188
      ],
      "min": [
        0.006567771080881357,
        0.006425261497497559
      ],
      "type": "VEC2"
    },
    {
      "bufferView": 1,
      "byteOffset": 154368,
      "componentType": 5126,
      "count": 19296,
      "max": [
        0.9917015433311462,
        0.9912643432617188
      ],
      "min": [
        0.006567771080881357,
        0.006425261497497559
      ],
      "type": "VEC2"
    },
    {
      "bufferView": 1,
      "byteOffset": 308736,
      "componentType": 5126,
      "count": 19296,
      "max": [
        0.9917015433311462,
        0.9912643432617188
      ],
      "min": [
        0.006567771080881357,
        0.006425261497497559
      ],
      "type": "VEC2"
    },
    {
      "bufferView": 1,
      "byteOffset": 463104,
      "componentType": 5126,
      "count": 19296,
      "max": [
        0.9917015433311462,
        0.9912643432617188
      ],
      "min": [
        0.006567771080881357,
        0.006425261497497559
      ],
      "type": "VEC2"
    },
    {
      "bufferView": 1,
      "byteOffset": 617472,
      "componentType": 5126,
      "count": 19296,
      "max": [
        0.9917015433311462,
        0.9912643432617188
      ],
      "min": [
        0.006567771080881357,
        0.006425261497497559
      ],
      "type": "VEC2"
    },
    {
      "bufferView": 0,
      "componentType": 5125,
      "count": 105744,
      "type": "SCALAR"
    }
  ],
  "asset": {
    "extras": {
      "author": "Al-Deezel (https://sketchfab.com/Al-dezel)",
      "license": "CC-BY-4.0 (http://creativecommons.org/licenses/by/4.0/)",
      "source": "https://sketchfab.com/3d-models/detailed-monkey-bbf43e1c94a14dae9ae37f40923a7e87",
      "title": "Detailed Monkey"
    },
    "generator": "Sketchfab-15.24.0",
    "version": "2.0"
  },
  "bufferViews": [
    {
      "buffer": 0,
      "byteLength": 422976,
      "name": "floatBufferViews",
      "target": 34963
    },
    {
      "buffer": 0,
      "byteLength": 771840,
      "byteOffset": 422976,
      "byteStride": 8,
      "name": "floatBufferViews",
      "target": 34962
    },
    {
      "buffer": 0,
      "byteLength": 463104,
      "byteOffset": 1194816,
      "byteStride": 12,
      "name": "floatBufferViews",
      "target": 34962
    },
    {
      "buffer": 0,
      "byteLength": 308736,
      "byteOffset": 1657920,
      "byteStride": 16,
      "name": "floatBufferViews",
      "target": 34962
    }
  ],
  "buffers": [
    {
      "byteLength": 1966656,
      "uri": "scene.bin"
    }
  ],
  "extensionsRequired": [
    "KHR_materials_pbrSpecularGlossiness"
  ],
  "extensionsUsed": [
    "KHR_materials_pbrSpecularGlossiness"
  ],
  "images": [
    {
      "uri": "textures/material_0_diffuse.png"
    },
    {
      "uri": "textures/material_0_specularGlossiness.png"
    },
    {
      "uri": "textures/material_0_normal.png"
    },
    {
      "uri": "textures/material_0_occlusion.png"
    }
  ],
  "materials": [
    {
      "doubleSided": true,
      "extensions": {
        "KHR_materials_pbrSpecularGlossiness": {
          "diffuseFactor": [
            1.0,
            1.0,
            1.0,
            1.0
          ],
          "diffuseTexture": {
            "index": 0
          },
          "glossinessFactor": 1.0,
          "specularFactor": [
            1.0,
            1.0,
            1.0
          ],
          "specularGlossinessTexture": {
            "index": 1
          }
        }
      },
      "name": "material_0",
      "normalTexture": {
        "index": 2
      },
      "occlusionTexture": {
        "index": 3
      }
    }
  ],
  "meshes": [
    {
      "name": "Object_0",
      "primitives": [
        {
          "attributes": {
            "NORMAL": 1,
            "POSITION": 0,
            "TANGENT": 2,
            "TEXCOORD_0": 3,
            "TEXCOORD_1": 4,
            "TEXCOORD_2": 5,
            "TEXCOORD_3": 6,
            "TEXCOORD_4": 7
          },
          "indices": 8,
          "material": 0,
          "mode": 4
        }
      ]
    }
  ],
  "nodes": [
    {
      "children": [
        1
      ],
      "matrix": [
        1.0,
        0.0,
        0.0,
        0.0,
        0.0,
        2.220446049250313e-16,
        -1.0,
        0.0,
        0.0,
        1.0,
        2.220446049250313e-16,
        0.0,
        0.0,
        0.0,
        0.0,
        1.0
      ],
      "name": "Sketchfab_model"
    },
    {
      "children": [
        2
      ],
      "name": "root"
    },
    {
      "children": [
        3
      ],
      "matrix": [
        1.0,
        0.0,
        0.0,
        0.0,
        0.0,
        2.220446049250313e-16,
        1.0,
        0.0,
        0.0,
        -1.0,
        2.220446049250313e-16,
        0.0,
        0.0,
        0.0,
        0.0,
        1.0
      ],
      "name": "GLTF_SceneRootNode"
    },
    {
      "children": [
        4
      ],
      "matrix": [
        0.009999999776482582,
        0.0,
        0.0,
        0.0,
        0.0,
        0.009999999776482582,
        0.0,
        0.0,
        0.0,
        0.0,
        0.009999999776482582,
        0.0,
        0.0,
        0.0,
        0.0,
        1.0
      ],
      "name": "RootNode.0_0"
    },
    {
      "children": [
        5
      ],
      "name": "monkey.1_1"
    },
    {
      "mesh": 0,
      "name": "Object_5"
    }
  ],
  "samplers": [
    {
      "magFilter": 9729,
      "minFilter": 9987,
      "wrapS": 10497,
      "wrapT": 10497
    }
  ],
  "scene": 0,
  "scenes": [
    {
      "name": "Sketchfab_Scene",
      "nodes": [
        0
      ]
    }
  ],
  "textures": [
    {
      "sampler": 0,
      "source": 0
    },
    {
      "sampler": 0,
      "source": 1
    },
    {
      "sampler": 0,
      "source": 2
    },
    {
      "sampler": 0,
      "source": 3
    }
  ]
}
